<svg width="32" height="32" viewBox="0 0 32 32" fill="none" xmlns="http://www.w3.org/2000/svg">
<path d="M9.92017 27.4546C15.3318 27.4546 18.8522 24.6291 18.8522 20.3782C18.8522 17.0819 16.7114 14.987 12.8831 14.119L10.4267 13.3922C8.27072 12.915 7.01199 12.3422 7.30854 10.8786C7.55545 9.66062 8.29236 8.97334 10.0093 8.97334C15.4629 8.97334 17.484 10.8786 17.484 10.8786V6.2968C17.484 6.2968 15.5163 4.54553 10.0093 4.54553C4.81654 4.54553 2 7.18007 2 11.2566C2 14.553 3.95236 16.471 7.91181 17.381L8.3369 17.4866C8.9389 17.6699 9.75217 17.913 10.7754 18.2146C12.7991 18.6919 13.3196 19.1984 13.3196 20.7168C13.3196 22.1041 11.856 22.8931 9.92144 22.8931C4.34309 22.8931 2 20.1122 2 20.1122V25.1891C2 25.1891 3.46618 27.4546 9.92017 27.4546Z" fill="url(#paint0_linear_17893_7867)"/>
<path d="M26.6578 27.1109C28.5733 27.1109 30 25.7453 30 23.896C30 22.0073 28.614 20.6811 26.6578 20.6811C24.7424 20.6811 23.3564 22.0073 23.3564 23.896C23.3564 25.7847 24.7424 27.1109 26.6578 27.1109Z" fill="#E80000"/>
<defs>
<linearGradient id="paint0_linear_17893_7867" x1="1402" y1="4.54553" x2="1402" y2="2295.45" gradientUnits="userSpaceOnUse">
<stop stop-color="#9D39FF"/>
<stop offset="1" stop-color="#A380FF"/>
</linearGradient>
</defs>
</svg>
